<?xml version="1.0" encoding="UTF-8" standalone="no"?>
<!-- Created with Inkscape (http://www.inkscape.org/) -->

<svg
   version="1.1"
   id="svg1"
   width="1024"
   height="1024"
   viewBox="0 0 1024 1024"
   sodipodi:docname="favicon.svg"
   inkscape:version="1.4.2 (f4327f4, 2025-05-13)"
   xmlns:inkscape="http://www.inkscape.org/namespaces/inkscape"
   xmlns:sodipodi="http://sodipodi.sourceforge.net/DTD/sodipodi-0.dtd"
   xmlns="http://www.w3.org/2000/svg"
   xmlns:svg="http://www.w3.org/2000/svg">
  <defs
     id="defs1" />
  <sodipodi:namedview
     id="namedview1"
     pagecolor="#ffffff"
     bordercolor="#000000"
     borderopacity="0.25"
     inkscape:showpageshadow="2"
     inkscape:pageopacity="0.0"
     inkscape:pagecheckerboard="0"
     inkscape:deskcolor="#d1d1d1"
     inkscape:zoom="0.75488281"
     inkscape:cx="665.00388"
     inkscape:cy="512"
     inkscape:window-width="1920"
     inkscape:window-height="991"
     inkscape:window-x="-9"
     inkscape:window-y="-9"
     inkscape:window-maximized="1"
     inkscape:current-layer="g1" />
  <g
     inkscape:groupmode="layer"
     inkscape:label="Image"
     id="g1">
    <path
       style="fill:#000000"
       d="M 1.3246895,512.00001 V 1.4747733e-7 H 513.32469 1025.3247 V 512.00001 1024 H 513.32469 1.3246895 Z M 361.04199,871.87506 c 1.7695,-0.5547 4.3391,-2.34176 5.7102,-3.97124 1.3711,-1.62948 2.7407,-4.41194 3.0436,-6.18325 0.3029,-1.77131 0.9328,-9.07744 1.3998,-16.23586 l 0.849,-13.0153 2.0892,-4.0951 c 1.149,-2.25231 4.4931,-6.97043 7.4314,-10.4847 2.9382,-3.51428 8.5601,-10.2146 12.4931,-14.8896 3.933,-4.675 12.7934,-14.575 19.6897,-22 l 12.5387,-13.5 2.8648,-7 c 1.5757,-3.85 3.6755,-9.21338 4.6662,-11.91863 l 1.8012,-4.91863 13.1029,-14.08137 c 7.2066,-7.74475 17.1738,-18.35637 22.1494,-23.58137 4.9756,-5.225 15.2688,-16.1375 22.8738,-24.25 7.6051,-8.1125 14.1896,-14.75 14.6323,-14.75 0.4428,0 12.4245,9.83204 26.6262,21.84898 14.2017,12.01694 31.2212,26.68777 37.8212,32.60183 l 12,10.75285 1.2628,12.64817 c 0.6945,6.95649 1.9569,15.05305 2.8053,17.99234 0.8484,2.93929 4.1763,11.26429 7.3954,18.5 3.2191,7.23571 8.3728,18.48723 11.4528,25.0034 l 5.5999,11.84756 -2.5081,19.74103 c -1.3794,10.85757 -2.5081,21.62027 -2.5081,23.91712 v 4.17609 l 3.4275,3.73532 3.4274,3.73531 53.8226,-0.34419 53.8225,-0.34419 3.4355,-1.65581 c 1.8895,-0.9107 4.2849,-2.81977 5.3232,-4.24239 1.0383,-1.42261 2.1186,-4.34761 2.4006,-6.5 l 0.5128,-3.91342 -2.3696,-3.5 -2.3697,-3.5 -25.9664,-15.71965 c -14.2815,-8.64581 -26.3382,-15.85723 -26.7925,-16.02538 -0.4544,-0.16815 -1.6867,-11.0943 -2.7386,-24.28035 -1.0518,-13.18604 -3.2925,-41.97462 -4.9794,-63.97462 l -3.0671,-40 -2.6944,-3.64849 c -1.4819,-2.00667 -6.0481,-8.08167 -10.147,-13.5 -4.0989,-5.41833 -12.6126,-16.37651 -18.9193,-24.35151 -6.3066,-7.975 -16.3022,-20.125 -22.2122,-27 -5.9101,-6.875 -13.7514,-15.425 -17.4251,-19 -3.6737,-3.575 -9.2658,-9.875 -12.4268,-14 -3.161,-4.125 -6.2873,-8.518 -6.9473,-9.76223 l -1.2002,-2.26223 4.0832,-8.59433 c 2.2457,-4.72688 6.3862,-12.03387 9.201,-16.23777 2.8148,-4.20389 9.0551,-12.85739 13.8673,-19.22999 4.8121,-6.3726 10.2196,-14.0226 12.0165,-17 1.797,-2.9774 3.3997,-5.5876 3.5617,-5.80046 0.162,-0.21285 11.6703,2.0095 25.5741,4.93856 13.9039,2.92906 25.4482,5.44671 25.6541,5.59477 0.206,0.14807 -0.8686,1.74657 -2.388,3.55222 -1.5194,1.80566 -6.8629,11.62698 -11.8744,21.82515 -5.0116,10.19817 -10.7821,22.02556 -12.8234,26.28309 l -3.7114,7.74095 2.4004,9.46269 c 1.3202,5.20447 2.9903,10.69306 3.7114,12.19687 0.721,1.5038 2.436,3.30322 3.811,3.9987 l 2.5,1.26453 17.5,-0.0648 c 9.625,-0.0356 21.2606,-0.37707 25.8568,-0.75877 l 8.3568,-0.694 2.1792,-2.53342 c 1.1985,-1.39337 4.1007,-8.13279 6.4493,-14.97648 2.3485,-6.84369 5.2574,-14.33694 6.464,-16.65168 1.2066,-2.31473 7.3316,-11.76473 13.611,-21 6.2794,-9.23526 16.6642,-23.76639 23.0773,-32.29139 6.4132,-8.525 12.4251,-16.67691 13.3598,-18.11535 l 1.6994,-2.61535 -3.9656,-16.88465 c -2.1811,-9.28656 -6.2667,-23.98813 -9.0791,-32.67015 l -5.1136,-15.78551 5.0973,-11.10551 c 2.8035,-6.10803 6.8811,-16.27894 9.0614,-22.60201 2.1803,-6.32308 4.8738,-15.96022 5.9856,-21.41587 1.1118,-5.45566 2.286,-14.05628 2.6093,-19.11249 l 0.5878,-9.19311 -2.0553,-12.00375 c -1.1303,-6.60207 -2.3797,-12.84933 -2.7762,-13.8828 l -0.7211,-1.87904 8.19,4.26088 8.1899,4.26088 5.5966,6.12192 c 3.0781,3.36705 7.0704,8.39513 8.8718,11.1735 1.8014,2.77838 4.3855,7.72838 5.7424,11 1.357,3.27163 3.3127,8.42341 4.3462,11.44841 l 1.879,5.5 -0.2645,28.32756 -0.2645,28.32756 1.5013,9.3296 c 0.8257,5.13128 2.6504,12.40888 4.0549,16.17244 1.4044,3.76356 4.2546,9.31784 6.3337,12.34284 2.079,3.025 6.5053,7.57593 9.8361,10.11319 3.3308,2.53725 9.2269,5.85724 13.1025,7.37775 l 7.0464,2.76456 2.6081,-0.65459 2.608,-0.65458 1.9653,-3.22317 c 1.0809,-1.77274 1.9669,-4.88949 1.969,-6.92611 0,-2.03662 -0.482,-4.76905 -1.0757,-6.07207 -0.5937,-1.30301 -4.7143,-4.81169 -9.1569,-7.79705 -4.4426,-2.98536 -9.3613,-7.18907 -10.9304,-9.34158 -1.5692,-2.1525 -3.6035,-6.2025 -4.5209,-9 l -1.6678,-5.08633 -0.1241,-32.5 -0.124,-32.5 -1.7164,-7.40149 c -0.944,-4.07082 -2.7969,-10.50863 -4.1176,-14.30626 -1.3206,-3.79762 -4.35,-10.36695 -6.7319,-14.59851 l -4.3306,-7.69374 -10.5,-10.56782 c -5.775,-5.81231 -13.0721,-12.23863 -16.2157,-14.28072 -3.1437,-2.0421 -11.2437,-6.64888 -18,-10.2373 l -12.2843,-6.5244 -18.5,-18.29905 c -10.175,-10.06447 -22.399,-21.71307 -27.1645,-25.88578 -4.7655,-4.1727 -14.0489,-11.60256 -20.6296,-16.5108 -6.5808,-4.90823 -16.1818,-11.54855 -21.3355,-14.75627 -5.1537,-3.20771 -14.3223,-8.41684 -20.3746,-11.57583 -6.0523,-3.159 -16.1064,-7.79419 -22.3425,-10.30042 -6.2361,-2.50624 -15.935,-5.89582 -21.553,-7.53241 -5.6181,-1.63658 -13.564,-3.68488 -17.6575,-4.55177 -4.0935,-0.86689 -11.9428,-2.26221 -17.4428,-3.10071 l -10,-1.52454 -24.0075,-0.55306 -24.0076,-0.55307 -13.4924,1.70046 c -7.4209,0.93526 -18.8925,2.83151 -25.4925,4.21391 -6.6,1.3824 -16.275,3.87229 -21.5,5.53311 -5.225,1.66081 -13.775,4.8133 -19,7.00552 -5.225,2.19222 -15.7034,7.07105 -23.2854,10.84185 -7.5819,3.7708 -18.3819,9.86494 -24,13.54253 -5.618,3.67758 -14.7146,10.17611 -20.2146,14.44116 -5.5,4.26506 -13.8457,11.06682 -18.546,15.11503 -4.7003,4.04821 -13.0253,11.20084 -18.5,15.89474 -5.4747,4.6939 -13.3703,11.3021 -17.5457,14.68489 -4.1754,3.38279 -11.9524,9.10707 -17.2821,12.72063 -5.3297,3.61355 -13.1635,8.31585 -17.4083,10.44954 -4.2448,2.1337 -11.5429,5.22898 -16.2179,6.87841 -4.675,1.64942 -12.325,3.79107 -17,4.75921 l -8.5,1.76025 -10.5,0.0944 -10.5,0.0944 -5.4644,-2.98809 -5.4645,-2.98809 -3.2584,-4.29211 c -1.7921,-2.36067 -4.1992,-7.31067 -5.3492,-11 -1.15,-3.68934 -2.3504,-10.59276 -2.6676,-15.34093 l -0.5768,-8.63305 1.2897,-8.29024 1.2896,-8.29024 -2.705,-2.32671 -2.7049,-2.32672 h -2.7699 -2.77 l -2.1254,2.26246 c -1.169,1.24435 -3.0732,4.40484 -4.2315,7.02331 -1.1582,2.61847 -2.7474,7.78786 -3.5314,11.48754 -0.7841,3.69968 -1.4267,11.00169 -1.4282,16.22669 v 9.5 l 1.5079,6.39689 c 0.8294,3.51828 3.1187,9.46222 5.0874,13.20874 l 3.5796,6.81186 4.9509,4.63101 4.9509,4.63102 8.1969,3.738 c 4.5083,2.05589 9.4401,4.25847 10.9597,4.89462 l 2.7627,1.15663 -5.7967,11.26561 c -3.1883,6.19609 -6.802,14.33701 -8.0307,18.09093 l -2.2338,6.82531 -2.5373,21.67469 c -1.3955,11.92108 -3.4115,26.01564 -4.48,31.32124 -1.0685,5.3056 -4.252,16.5556 -7.0745,25 l -5.1318,15.35345 -0.088,5.22036 -0.088,5.22037 2.0596,2.77963 2.0597,2.77964 9.9077,5.22064 c 5.4493,2.87135 12.5826,6.13385 15.8519,7.25 l 5.9445,2.02945 h 6.1802 c 3.399,0 8.0908,-0.67415 10.4261,-1.4981 2.3354,-0.82396 7.0045,-3.49547 10.3758,-5.93668 3.3713,-2.44122 9.5046,-7.41891 13.6296,-11.06155 4.125,-3.64264 11.9131,-9.55906 17.3068,-13.14762 l 9.8068,-6.52464 1.0303,-2.6657 c 0.5666,-1.46614 0.822,-4.57172 0.5676,-6.90128 -0.2544,-2.32957 -1.1722,-5.31854 -2.0394,-6.64217 l -1.5769,-2.4066 -7.8231,2.20755 c -4.3026,1.21415 -10.0939,3.44351 -12.8694,4.95413 -2.7755,1.51062 -8.3966,5.7562 -12.4913,9.43462 -4.0947,3.67842 -9.4982,8.36694 -12.0078,10.41892 -2.5096,2.05198 -6.6635,4.66007 -9.2309,5.79575 l -4.668,2.06488 -3.7523,-0.68096 c -2.0638,-0.37453 -5.5524,-1.57457 -7.7524,-2.66677 -2.2,-1.09219 -4.5177,-2.3993 -5.1505,-2.90468 l -1.1505,-0.91888 1.3001,-5.21011 c 0.715,-2.86556 3.618,-14.19191 6.4509,-25.16966 l 5.1509,-19.95955 0.9291,-13.54045 c 0.5111,-7.44725 1.2171,-15.79045 1.5689,-18.54045 0.3519,-2.75 1.5375,-7.925 2.6348,-11.5 1.0973,-3.575 4.1453,-10.775 6.7734,-16 2.628,-5.225 5.1099,-10.625 5.5151,-12 0.4053,-1.375 1.7803,-4.57665 3.0556,-7.11479 l 2.3189,-4.61478 9.8016,-2.25187 c 5.391,-1.23852 13.8517,-3.5931 18.8017,-5.23239 4.95,-1.63929 13.3918,-5.16856 18.7596,-7.84283 5.3678,-2.67427 14.3535,-7.89137 19.9682,-11.59355 5.6148,-3.70219 14.948,-10.54294 20.7404,-15.20166 5.7925,-4.65873 16.8318,-13.94605 24.5318,-20.63849 7.7,-6.69244 18.95,-16.11083 25,-20.92975 6.05,-4.81892 17.0381,-12.78397 24.4181,-17.70011 7.3799,-4.91614 19.3049,-11.84072 26.5,-15.38796 7.195,-3.54724 19.2081,-8.46302 26.6956,-10.92397 7.4876,-2.46094 18.125,-5.39377 23.6387,-6.51739 5.5137,-1.12362 15.8098,-2.71964 22.8801,-3.5467 7.0704,-0.82707 19.383,-1.50338 27.3614,-1.50292 7.9783,4.6e-4 19.4561,0.45748 25.5061,1.01562 6.05,0.55813 16.625,1.95077 23.5,3.09476 6.875,1.14398 17.675,3.64484 24,5.55746 6.325,1.91263 16.6308,5.68579 22.9017,8.38482 6.271,2.69903 15.8028,7.39922 21.1818,10.44485 5.3791,3.04564 14.4233,8.59929 20.0983,12.34146 5.675,3.74216 15.0432,10.57956 20.8182,15.19421 5.775,4.61466 16.8175,14.70732 24.5388,22.42813 7.7214,7.72082 16.3961,17.18785 19.2773,21.03785 2.8811,3.85 7.2378,10.95645 9.6814,15.79212 2.4436,4.83566 5.4643,12.03566 6.7126,16 l 2.2697,7.20788 -0.015,15 -0.015,15 -2.8362,11 c -1.5599,6.05 -4.1572,14.375 -5.7718,18.5 -1.6146,4.125 -5.8877,13.39724 -9.4957,20.60497 l -6.56,13.10497 5.5485,16.89503 c 3.0517,9.29227 7.1764,23.09383 9.1662,30.67014 l 3.6178,13.7751 -0.6402,2.01696 c -0.3521,1.10933 -4.5702,7.06053 -9.3737,13.2249 -4.8033,6.16436 -15.2851,20.88293 -23.2927,32.70793 l -14.5594,21.5 -3.8764,11.2441 -3.8764,11.24409 -12.8174,0.006 -12.8174,0.006 0.6266,-2.25 c 0.3447,-1.2375 3.7225,-8.55 7.5063,-16.25 3.7837,-7.7 9.3279,-18.06043 12.3203,-23.02318 l 5.4407,-9.02317 4.7841,-13.47683 c 2.6313,-7.41225 5.5632,-15.21973 6.5154,-17.34996 l 1.7312,-3.87314 -0.8687,-3.02893 c -0.4778,-1.66592 -3.0739,-6.90744 -5.7692,-11.64784 -2.6952,-4.7404 -6.7964,-13.10947 -9.1137,-18.59793 -2.3174,-5.48846 -5.4798,-13.80402 -7.0278,-18.47902 -1.5479,-4.675 -3.5657,-12.9543 -4.4841,-18.39845 -0.9183,-5.44415 -2.0397,-15.84701 -2.4919,-23.11746 -0.4522,-7.27044 -1.3302,-14.16833 -1.9512,-15.32862 -0.621,-1.1603 -2.0732,-2.61495 -3.2272,-3.23255 -1.154,-0.61761 -3.7159,-1.12292 -5.6932,-1.12292 h -3.5949 l -2.6978,3.01936 -2.6978,3.01935 -1.7384,7.81365 -1.7383,7.81364 0.9199,7.767 0.92,7.767 h -1.8973 c -1.0436,0 -7.1266,-1.17011 -13.5178,-2.60025 -6.3912,-1.43013 -22.8704,-5.42132 -36.6204,-8.86931 -13.75,-3.44799 -26.6268,-6.95454 -28.615,-7.79234 l -3.6151,-1.52327 -0.5575,-23.85741 -0.5576,-23.85742 -1.6649,-6 c -0.9157,-3.3 -3.2787,-9.0801 -5.251,-12.84467 -1.9724,-3.76456 -5.6442,-8.90275 -8.1596,-11.41818 l -4.5736,-4.57353 -6.1703,-2.88747 -6.1704,-2.88747 -9.0881,-1.14713 -9.0882,-1.14713 -8.1702,1.19082 -8.1702,1.19082 -6.4697,3.02756 -6.4698,3.02757 -6.607,6.73441 -6.6069,6.7344 -4.2795,8.5 -4.2795,8.5 -0.218,26.20167 -0.2179,26.20167 -6.5,1.02232 c -3.575,0.56227 -14.7948,2.18725 -24.933,3.61106 -10.1381,1.42381 -19.1685,2.98239 -20.0674,3.46352 -0.899,0.48113 -2.9095,4.1654 -4.4678,8.18727 -1.5582,4.02187 -4.069,9.78749 -5.5795,12.81249 -1.5105,3.025 -7.1328,12.925 -12.494,22 -5.3612,9.075 -13.0311,22.8 -17.0442,30.5 l -7.2966,14 -2.6398,15.97656 c -1.4518,8.7871 -2.8367,16.29536 -3.0776,16.68501 -0.2408,0.38965 0.2904,6.2502 1.1805,13.02344 l 1.6184,12.31499 -0.4678,7 c -0.2572,3.85 -1.261,8.93798 -2.2307,11.30663 l -1.763,4.30663 -1.6187,-0.60517 c -0.8904,-0.33284 -4.042,-2.04582 -7.0037,-3.80663 -2.9617,-1.7608 -6.6125,-4.41192 -8.113,-5.89136 -1.5004,-1.47945 -2.9939,-3.95445 -3.3189,-5.5 -0.325,-1.54556 -2.6495,-12.4851 -5.1656,-24.3101 -2.5161,-11.825 -5.4399,-25.775 -6.4974,-31 -1.0574,-5.225 -2.0571,-10.47313 -2.2214,-11.66252 l -0.2988,-2.16271 17.5,-29.24791 17.5,-29.24792 5.1073,-5.08956 c 2.809,-2.79926 5.8863,-6.30878 6.8384,-7.79893 l 1.7311,-2.70936 -0.6926,-3.15303 c -0.3808,-1.73417 -2.273,-4.90245 -4.2047,-7.04064 l -3.5122,-3.88761 h -2.2493 c -1.2371,0 -5.3986,1.57556 -9.2479,3.50125 l -6.9985,3.50124 -21.9903,36.74876 c -12.0946,20.21181 -22.5224,37.76286 -23.1729,39.00233 l -1.1826,2.25357 5.4592,24.74643 c 3.0025,13.61053 6.6414,30.59642 8.0864,37.74642 1.445,7.15 3.542,16.44192 4.6601,20.64871 l 2.0329,7.64871 3.6678,2.9193 c 2.0173,1.60561 6.5199,4.84482 10.0057,7.19824 3.4858,2.35341 9.6983,5.81031 13.8054,7.68199 4.1071,1.87168 8.3739,3.40305 9.4816,3.40305 1.1078,0 5.3607,-1.39317 9.4509,-3.09593 l 7.4367,-3.09592 2.8909,-3.50713 c 1.59,-1.92893 3.7179,-6.27326 4.7287,-9.65408 l 1.8379,-6.14694 0.015,-20.86299 0.015,-20.863 3.6337,-3.137 c 1.9986,-1.72536 9.1139,-5.99665 15.8119,-9.49177 6.698,-3.49511 12.3024,-6.19511 12.4543,-6 0.1518,0.19512 1.6624,2.40772 3.3568,4.9169 1.6945,2.50917 5.854,7.88121 9.2433,11.93786 3.3893,4.05665 7.5772,9.42869 9.3064,11.93786 1.7292,2.50918 5.2651,8.34215 7.8575,12.96216 l 4.7134,8.40001 -2.949,5.84198 c -1.622,3.21309 -5.9301,9.55809 -9.5736,14.09999 -3.6436,4.5419 -12.7225,16.358 -20.1755,26.258 -7.453,9.9 -16.92,23.16033 -21.0377,29.4674 -4.1177,6.30707 -10.0722,16.88207 -13.2321,23.5 -3.16,6.61793 -7.8553,18.3326 -10.4342,26.0326 -2.5788,7.7 -5.3732,15.35 -6.2097,17 -0.8365,1.65 -6.4454,7.725 -12.4643,13.5 l -10.9433,10.5 -4.9753,17 c -2.7364,9.35 -6.5412,23.075 -8.4552,30.5 -1.914,7.425 -4.8466,17.63633 -6.5168,22.69185 l -3.0368,9.19185 -7.7209,10.80815 c -4.2465,5.94448 -10.0121,13.95815 -12.8123,17.80815 -2.8003,3.85 -6.217,9.25 -7.5928,12 -1.3758,2.75 -2.8104,6.42965 -3.188,8.17701 l -0.6867,3.17701 1.4611,2.82535 c 0.8036,1.55394 2.3887,3.66485 3.5225,4.69091 1.1337,1.02606 3.5423,2.24575 5.3523,2.71042 1.8101,0.46467 16.341,0.61041 32.291,0.32388 15.95,-0.28654 30.4478,-0.97483 32.2173,-1.52953 z m -41.3566,-22.37505 c 0.2125,-0.55 4.2972,-6.55998 9.0771,-13.35552 4.7799,-6.79553 9.5627,-14.22053 10.6285,-16.5 1.0658,-2.27946 5.7371,-17.64448 10.3806,-34.14448 4.6436,-16.5 9.3705,-32.66607 10.5042,-35.92461 l 2.0613,-5.9246 11.2438,-11.5754 11.2438,-11.57539 6.3862,-19 6.3861,-19 5.9319,-11.5 c 3.2625,-6.325 9.2544,-16.45 13.3152,-22.5 4.0608,-6.05 12.6667,-17.75 19.1243,-26 6.4575,-8.25 15.534,-19.95 20.17,-26 l 8.4289,-11 1.6287,0.40144 c 0.8958,0.2208 6.3537,0.57469 12.1287,0.78643 5.775,0.21174 24.225,-0.0202 41,-0.51534 l 30.5,-0.90032 1,1.49803 c 0.55,0.82392 3.025,4.24572 5.5,7.60401 2.475,3.35829 9.9,11.74964 16.5,18.64743 6.6,6.8978 16.7507,17.92725 22.557,24.50989 5.8064,6.58264 14.3906,16.69343 19.076,22.46843 4.6854,5.775 12.4295,15.9 17.2091,22.5 4.7796,6.6 9.5898,13.1291 10.6894,14.50912 l 1.9993,2.50912 0.9769,11.49088 c 0.5373,6.31998 2.8042,34.61801 5.0375,62.8845 l 4.0607,51.39363 1.9244,3.77216 c 1.0584,2.07469 3.2923,4.74616 4.9641,5.9366 1.6718,1.19044 7.9951,5.00945 14.0516,8.48669 l 11.012,6.32224 -26.779,0.38508 c -14.7285,0.2118 -26.939,0.28323 -27.1345,0.15873 -0.1955,-0.12449 0.5926,-7.34139 1.7514,-16.03755 1.1587,-8.69616 2.1062,-17.20109 2.1054,-18.89985 l -0.001,-3.08866 -5.0986,-10.41134 c -2.8043,-5.72624 -8.4921,-17.83635 -12.6396,-26.91135 -4.1474,-9.075 -7.936,-17.85 -8.4189,-19.5 -0.4829,-1.65 -1.3471,-9.975 -1.9204,-18.5 l -1.0423,-15.5 -2.6901,-2.86795 c -1.4795,-1.57738 -9.8901,-9.24812 -18.6901,-17.04611 -8.8,-7.79798 -23.9492,-21.00637 -33.6649,-29.35197 -9.7158,-8.3456 -22.4977,-19.06141 -28.4044,-23.81291 l -10.7395,-8.6391 -6.0494,0.43757 -6.0494,0.43758 -11.5462,12.00398 c -6.3504,6.60219 -19.6372,20.74185 -29.5263,31.42145 -9.8891,10.6796 -23.8391,25.51835 -31,32.97499 l -13.0199,13.55754 -4.3771,11.94246 -4.3771,11.94247 -6.7271,7 c -3.6999,3.85 -10.8231,11.62305 -15.8294,17.27345 -5.0062,5.65039 -12.7993,15.10039 -17.318,21 -4.5186,5.8996 -9.8848,13.30124 -11.9249,16.44809 l -3.7092,5.72153 -1.0798,6.27847 c -0.5939,3.45315 -1.3585,9.74325 -1.6992,13.97798 l -0.6193,7.69953 -14.4323,0.30047 -14.4322,0.30048 z m 151.5423,-291.75 c -1.7191,-3.4375 -4.7199,-8.95 -6.6684,-12.25 -1.9484,-3.3 -10.3063,-14.98717 -18.5731,-25.97149 -8.2667,-10.98432 -16.4239,-22.44991 -18.127,-25.47909 -1.7032,-3.02918 -4.2388,-6.14871 -5.6349,-6.93228 l -2.5382,-1.42466 -2.4307,0.61989 c -1.3369,0.34095 -8.3833,4.17181 -15.6587,8.51304 -7.2753,4.34122 -13.9305,8.47618 -14.7891,9.18881 -0.8587,0.71262 0.5007,-3.16155 3.0208,-8.60927 2.5202,-5.44772 7.1132,-14.17995 10.2069,-19.40495 3.0936,-5.225 7.7251,-12.65 10.2922,-16.5 2.567,-3.85 7.2893,-11.95 10.4938,-18 3.2045,-6.05 5.9719,-11.18068 6.1497,-11.40152 0.1779,-0.22084 11.2378,-1.90894 24.5776,-3.75135 13.3398,-1.8424 25.6848,-3.82195 27.4333,-4.39899 1.7484,-0.57705 4.0033,-2.26395 5.0109,-3.74866 l 1.8319,-2.69948 -0.3412,-31.12337 -0.3411,-31.12336 1.7394,-3.37664 c 0.9566,-1.85715 2.7957,-4.76655 4.0868,-6.46534 1.2911,-1.6988 4.6505,-4.34222 7.4654,-5.87428 l 5.118,-2.78556 6.2983,-0.50557 6.2983,-0.50557 6.708,1.26571 6.708,1.26571 3.2314,2.83721 c 1.7773,1.56047 4.5312,5.66184 6.1197,9.11414 l 2.8883,6.27692 0.3524,24.34921 0.3524,24.34921 -2.8143,2.93746 -2.8142,2.93745 -5.3985,1.56937 -5.3984,1.56936 -6.6293,-0.5614 c -3.6462,-0.30877 -7.7544,-0.69399 -9.1294,-0.85603 l -2.5,-0.29463 -0.2701,6 -0.2701,6 2.0468,3.31803 2.0467,3.31803 4.6225,2.04473 4.6224,2.04472 9.1009,-0.41025 9.1009,-0.41025 5.5,-2.66906 c 3.025,-1.46798 6.625,-3.56377 8,-4.65731 l 2.5,-1.98827 32,7.96812 c 17.6,4.38247 38.5576,9.31213 46.5724,10.95482 8.0149,1.64268 16.0024,2.98669 17.75,2.98669 h 3.1776 v 1.11511 c 0,0.6133 3.5925,8.6008 7.9834,17.75 4.3909,9.14919 9.1159,19.97621 10.5,24.06004 1.3841,4.08384 2.5166,7.72243 2.5166,8.08577 0,0.36333 -5.9625,-0.62449 -13.25,-2.19516 -7.2875,-1.57067 -22.1465,-4.65307 -33.0201,-6.84977 l -19.7701,-3.99401 -2.491,0.6252 c -1.37,0.34386 -3.3319,1.81266 -4.3597,3.26401 -1.0278,1.45134 -3.9942,6.64284 -6.5918,11.53665 -2.5977,4.89381 -9.0257,14.51202 -14.2843,21.37379 -5.2587,6.86178 -13.0844,18.38275 -17.3905,25.60217 -4.306,7.21941 -7.8322,13.68013 -7.8358,14.35715 0,0.67702 -1.0192,1.46379 -2.2567,1.74837 -1.2375,0.28458 -16.875,0.96468 -34.75,1.51134 -17.875,0.54665 -35.306,0.99739 -38.7356,1.00163 l -6.2356,0.008 z m -129.903,-185.59108 c 4.125,-1.00401 10.875,-3.25595 15,-5.00432 4.125,-1.74836 13.35,-6.2492 20.5,-10.00187 l 13,-6.82303 1.1708,-2.41485 c 0.644,-1.32817 0.9204,-3.69765 0.6142,-5.26552 -0.3061,-1.56787 -2.2258,-4.60537 -4.266,-6.75 l -3.7093,-3.89933 h -2.673 c -1.4702,0 -7.2774,2.31158 -12.9049,5.13684 -5.6275,2.82527 -13.1329,6.22975 -16.6787,7.56551 -3.5457,1.33577 -10.1993,3.31986 -14.7855,4.40911 -4.5863,1.08924 -13.7601,2.35714 -20.3863,2.81756 -6.6261,0.46042 -12.4601,1.2498 -12.9645,1.75419 -0.5044,0.50438 -0.9742,3.3972 -1.0441,6.4285 -0.07,3.0313 0.1953,6.52729 0.5894,7.76887 0.3941,1.24158 2.1388,3.12468 3.8772,4.18468 l 3.1607,1.92726 12,-0.004 12,-0.004 z"
       id="path1" />
  </g>
</svg>
