<?xml version="1.0" encoding="UTF-8" standalone="no"?>
<!-- Created with Inkscape (http://www.inkscape.org/) -->

<svg
   version="1.1"
   id="svg1"
   width="1024"
   height="1024"
   viewBox="0 0 1024 1024"
   sodipodi:docname="Logo-Negativ.svg"
   inkscape:version="1.4.2 (f4327f4, 2025-05-13)"
   xmlns:inkscape="http://www.inkscape.org/namespaces/inkscape"
   xmlns:sodipodi="http://sodipodi.sourceforge.net/DTD/sodipodi-0.dtd"
   xmlns="http://www.w3.org/2000/svg"
   xmlns:svg="http://www.w3.org/2000/svg">
  <defs
     id="defs1" />
  <sodipodi:namedview
     id="namedview1"
     pagecolor="#ffffff"
     bordercolor="#000000"
     borderopacity="0.25"
     inkscape:showpageshadow="2"
     inkscape:pageopacity="0.0"
     inkscape:pagecheckerboard="0"
     inkscape:deskcolor="#d1d1d1"
     inkscape:zoom="0.75488281"
     inkscape:cx="598.76843"
     inkscape:cy="557.0401"
     inkscape:window-width="1920"
     inkscape:window-height="991"
     inkscape:window-x="-9"
     inkscape:window-y="-9"
     inkscape:window-maximized="1"
     inkscape:current-layer="g1" />
  <g
     inkscape:groupmode="layer"
     inkscape:label="Image"
     id="g1">
    <path
       style="fill:#000000"
       d="m 609.28048,854.78742 c -1.6031,-0.97488 -3.6986,-3.42442 -4.6566,-5.44342 -1.6817,-3.54376 -1.6478,-4.44634 0.9785,-26.06116 l 2.7204,-22.39026 -8.0668,-17.3069 c -16.121,-34.58638 -17.815,-39.84152 -19.7627,-61.3069 l -0.7259,-8 -7.2304,-6 c -3.9767,-3.3 -15.2811,-12.99945 -25.1208,-21.55434 -24.90525,-21.65333 -43.22276,-36.94566 -44.25431,-36.94566 -0.78374,0 -11.28239,10.99294 -58.01821,60.74976 l -14.32386,15.24976 -4.64696,11.87091 -4.64697,11.87091 -14.65496,15.87933 c -18.48545,20.02983 -35.44871,40.62294 -37.96492,46.08878 -1.3943,3.02877 -2.22889,8.21772 -2.97552,18.5 -1.12834,15.53895 -2.42758,19.71491 -7.22617,23.22601 -2.6924,1.97002 -4.30501,2.07778 -35.2238,2.35377 -35.89166,0.32037 -36.87072,0.17438 -40.04907,-5.97187 -3.75383,-7.2591 -1.14178,-12.9461 17.97093,-39.12662 13.67713,-18.7349 13.91069,-19.28218 23.12677,-54.19074 2.46846,-9.35 6.26514,-22.84082 8.43708,-29.97959 l 3.94897,-12.97959 10.7147,-10.00631 c 11.91,-11.12258 12.66321,-12.3846 18.82074,-31.53451 9.03617,-28.10246 23.36271,-51.82491 56.45379,-93.47841 14.67475,-18.47189 20.55122,-27.70595 19.70964,-30.97093 -0.95158,-3.69171 -9.35125,-17.12082 -16.05715,-25.67166 -9.21289,-11.74755 -14.76922,-19.05645 -16.59611,-21.83085 l -1.56509,-2.3768 -11.43491,5.93865 c -6.2892,3.26626 -13.49558,7.49452 -16.01416,9.39614 l -4.57925,3.45749 0.0582,21.01818 c 0.0894,32.25188 -2.58507,38.56629 -18.64393,44.01869 l -8.29764,2.81727 -6.47909,-2.84433 c -7.91331,-3.47395 -23.54686,-13.35831 -27.16477,-17.17499 -2.79496,-2.94852 -4.50922,-9.84403 -17.44342,-70.16515 l -4.79593,-22.36671 2.52027,-4.63329 c 1.38614,-2.54832 5.3723,-9.25528 8.85812,-14.90437 3.48581,-5.64908 6.14333,-10.46558 5.90559,-10.70332 -0.23774,-0.23774 -3.56576,0.71445 -7.3956,2.11598 -5.10148,1.86689 -10.06371,2.75105 -18.5587,3.30674 -14.54024,0.95114 -16.6779,2.03061 -34.79957,17.57301 -17.25458,14.79872 -21.61153,16.99404 -33.60508,16.93243 -8.23656,-0.0423 -9.72102,-0.37115 -17.5,-3.87662 -4.675,-2.10671 -11.50238,-5.57275 -15.17196,-7.7023 -10.85821,-6.30131 -11.13788,-9.8677 -2.83567,-36.16115 6.11785,-19.37548 8.44942,-30.64484 10.4924,-50.7137 2.70223,-26.5449 4.71679,-34.03312 13.61939,-50.62377 2.69271,-5.01807 4.89584,-9.57359 4.89584,-10.12337 0,-0.54978 -3.7125,-2.47284 -8.25,-4.27348 -9.76492,-3.87505 -14.80719,-7.14802 -20.46033,-13.28095 -13.00701,-14.11095 -16.86695,-40.17467 -9.23491,-62.35758 3.99558,-11.61337 9.53165,-15.18117 15.53869,-10.01413 l 2.70497,2.32671 -1.29034,8.29464 c -2.5991,16.70777 0.64501,34.63816 7.9358,43.86171 7.05082,8.91995 16.14687,11.43271 33.48559,9.25027 14.57081,-1.83403 26.84167,-5.50315 40.07053,-11.9815 18.12903,-8.87802 32.67611,-19.43092 63.2351,-45.87269 32.01696,-27.70331 48.4904,-39.55291 71.7649,-51.6216 40.19516,-20.84267 76.24386,-29.58426 122,-29.58426 42.34055,0 77.00135,7.52047 111.63795,24.22244 34.8519,16.80576 62.1825,37.1364 97.9545,72.86603 18.2999,18.27826 18.8007,18.68554 30.009,24.40469 33.2709,16.97683 50.5573,36.53742 58.7181,66.44325 2.5592,9.37846 2.6116,10.21207 2.7052,43.06359 0.088,30.99619 0.2491,33.96027 2.1519,39.65827 2.9129,8.72265 5.3364,11.62654 15.2879,18.31789 4.8256,3.2447 9.0576,6.63924 9.4046,7.54343 1.0544,2.74782 0.6782,9.82852 -0.6632,12.48041 -0.6954,1.375 -2.4646,3.07544 -3.9314,3.77876 -2.281,1.09374 -3.5626,0.97703 -8.8573,-0.80663 -17.9258,-6.03877 -29.5966,-20.3537 -34.1989,-41.9468 -1.7848,-8.3741 -2.0415,-13.39287 -2.1242,-41.52533 l -0.094,-32 -3.231,-8 c -7.2154,-17.86544 -17.6684,-30.98032 -31.0304,-38.93223 -4.1858,-2.49104 -7.7608,-4.37889 -7.9445,-4.19522 -0.1837,0.18368 0.585,4.11249 1.7082,8.7307 6.5309,26.85302 1.5805,56.24302 -15.6665,93.01098 l -4.5099,9.61424 5.4807,16.88576 c 3.0144,9.28717 7.1468,24.07741 9.1831,32.86719 3.1076,13.41413 3.5001,16.3057 2.4435,18 -0.6923,1.11022 -6.2998,8.54358 -12.4611,16.51858 -6.1613,7.975 -14.2839,19.225 -18.0501,25 -3.7662,5.775 -9.3903,14.1 -12.4981,18.5 -7.2851,10.31452 -9.8004,15.44889 -14.4467,29.48936 -2.4664,7.45303 -4.7135,12.40071 -6.3963,14.08351 l -2.5941,2.59416 -25.2868,0.66975 c -30.5041,0.80794 -30.1166,0.91066 -33.109,-8.77744 -1.0921,-3.53595 -2.5103,-9.04582 -3.1516,-12.24417 -1.1583,-5.7774 -1.1384,-5.87364 3.06,-14.81517 10.6538,-22.68991 19.1986,-39.59322 22.4783,-44.46684 1.9665,-2.92229 3.4299,-5.45888 3.2519,-5.63687 -0.178,-0.17798 -8.8525,-2.10487 -19.2766,-4.28197 -10.4242,-2.1771 -21.7475,-4.62433 -25.1629,-5.4383 l -6.2099,-1.47993 -3.0614,5.42461 c -1.6838,2.98353 -8.1447,12.27691 -14.3576,20.65195 -15.2049,20.49644 -16.7479,22.85149 -21.586,32.94647 -5.3711,11.20724 -5.7064,10.52211 17.0241,34.78088 14.5201,15.4964 20.586,22.54429 34.4265,40 13.7263,17.31161 35.5144,45.93329 36.0356,47.33773 0.4302,1.15895 5.1097,58.76055 7.934,97.66227 2.2873,31.5031 2.0768,30.3257 5.8032,32.45859 25.4404,14.56138 47.9616,28.56339 51.0713,31.75245 3.5943,3.68602 3.8336,4.29085 3.36,8.49304 -0.6157,5.46252 -3.1826,9.23136 -7.7945,11.44455 -3.0138,1.4463 -9.8992,1.70902 -56.1008,2.14059 -49.1581,0.45919 -52.8594,0.37391 -55.58,-1.28058 z m -266.41903,-22.5443 c 0.18457,-0.16619 0.77003,-5.40115 1.30102,-11.63325 0.69913,-8.20536 1.60561,-12.71036 3.28609,-16.33109 4.85002,-10.44975 28.83352,-40.55456 48.59668,-61 6.27666,-6.49335 7.03614,-7.77465 10.49315,-17.70267 3.01338,-8.65399 4.70879,-11.85408 8.85711,-16.71785 6.21122,-7.28244 62.92256,-67.47423 73.80028,-78.32948 l 7.76603,-7.75 h 5.82274 5.82274 l 12.95929,10.583 c 7.12761,5.82066 17.9093,14.91622 23.9593,20.21236 32.2881,28.2649 50.3461,44.33459 53.2603,47.39603 l 3.2603,3.42504 0.9803,15.3985 c 0.5393,8.46917 1.4914,16.99298 2.1159,18.94178 1.2585,3.92715 8.7389,20.42693 18.6076,41.04329 3.5542,7.425 6.8431,14.47054 7.3087,15.65676 0.521,1.32756 0.1088,7.47903 -1.0721,16 -1.0553,7.61378 -2.1649,15.65009 -2.4659,17.85847 l -0.5472,4.01523 24.776,-0.303 c 13.6269,-0.16665 25.8654,-0.3985 27.1968,-0.51523 1.8286,-0.16032 -0.3655,-1.79027 -8.9705,-6.66397 -13.0311,-7.38064 -18.4101,-11.81732 -19.8398,-16.36423 -0.5507,-1.75122 -1.4856,-10.38403 -2.0775,-19.18403 -0.592,-8.8 -1.9598,-26.575 -3.0396,-39.5 -1.0798,-12.925 -2.729,-33.58759 -3.6649,-45.91686 l -1.7015,-22.41687 -3.2668,-4.08313 c -1.7967,-2.24573 -6.2878,-8.35383 -9.9802,-13.57357 -13.8301,-19.55064 -33.1058,-42.11345 -60.0347,-70.27236 -9.8232,-10.27187 -18.8363,-21.57565 -20.5895,-25.82246 -0.1407,-0.34062 -15.78071,-0.20838 -34.75571,0.29386 -34.06378,0.90162 -47.05905,0.75492 -50.01245,-0.56456 -1.09816,-0.49063 -3.27486,1.72544 -7.94641,8.09011 -3.53868,4.82121 -9.86815,13.04084 -14.06551,18.26584 -31.73199,39.50099 -42.20755,57.1864 -53.01332,89.5 l -6.35366,19 -11.17061,11.5 c -6.14384,6.325 -11.63978,12.4063 -12.21321,13.514 -0.57342,1.1077 -3.81795,11.9077 -7.21006,24 -15.74514,56.12874 -13.29081,49.89387 -27.08372,68.80212 -3.53707,4.84886 -6.99171,9.60093 -7.67697,10.56016 -1.17256,1.64135 -0.37769,1.7189 13.5,1.31713 8.11026,-0.2348 14.89693,-0.56288 15.0815,-0.72907 z M 682.84938,564.28629 c 0.1779,-0.17661 2.0885,-5.33212 4.2458,-11.45671 2.1574,-6.12458 5.6324,-13.70402 7.7224,-16.8432 13.8041,-20.7344 24.9017,-36.47039 33.9201,-48.09757 9.4321,-12.1606 10.3251,-13.67551 9.7265,-16.5 -1.3262,-6.25734 -9.6434,-34.42378 -13.4873,-45.67471 -2.173,-6.36057 -3.951,-12.6136 -3.951,-13.89562 0,-1.28203 2.8732,-8.00292 6.385,-14.93533 11.9885,-23.66599 16.5594,-39.54539 17.3009,-60.10437 0.5911,-16.38912 -0.4576,-22.78638 -5.8647,-35.77481 -13.6899,-32.88471 -64.7122,-78.09059 -114.4391,-101.39342 -27.9604,-13.10267 -61.0812,-19.80012 -98.02615,-19.82215 -41.50184,-0.0247 -75.14744,7.77943 -108.35596,25.13342 -20.95724,10.95175 -40.37264,25.23565 -74.34672,54.69681 -27.93561,24.22482 -43.82513,35.53494 -62.09759,44.20093 -12.78786,6.06483 -23.60724,9.8971 -35.05569,12.41686 -3.85,0.84737 -8.04523,1.78284 -9.32273,2.07882 -1.59412,0.36934 -2.95126,2.01646 -4.3264,5.25085 -1.10202,2.59198 -4.8853,10.78769 -8.4073,18.21269 -7.94879,16.75746 -9.01835,21.0373 -10.87093,43.5 -1.5169,18.39255 -4.00938,30.38332 -11.68685,56.22282 -1.67058,5.62255 -2.74645,10.69361 -2.39083,11.26902 1.10204,1.78314 10.13056,5.92464 14.40629,6.60836 5.99454,0.95856 12.63273,-2.78685 25.09875,-14.1613 16.28359,-14.85772 22.02465,-17.58816 42,-19.97512 6.325,-0.75581 13.12284,-1.84765 15.1063,-2.42632 6.61181,-1.92895 15.58761,-8.61587 20.46782,-15.24841 2.54511,-3.45898 5.01813,-6.53196 5.49559,-6.82885 0.47746,-0.29689 3.6946,-0.26176 7.1492,0.0781 3.4546,0.33983 6.39538,0.35774 6.53506,0.0398 2.63348,-5.99432 10.95268,-12.33685 17.92744,-13.66783 3.88247,-0.74088 7.26818,1.48058 10.25091,6.7259 3.43685,6.04392 2.83637,7.95579 -5.20479,16.57163 -4.23207,4.53453 -9.85808,12.18195 -13.45711,18.29222 -3.40155,5.775 -11.07267,18.55966 -17.04692,28.41036 l -10.86228,17.91037 1.72391,9.08963 c 0.94816,4.9993 3.33878,16.51464 5.31249,25.58964 1.97371,9.075 4.31872,20.1 5.21113,24.5 2.48732,12.26376 3.24243,14.15238 6.69255,16.73897 3.97535,2.98037 14.11862,8.76103 15.37289,8.76103 1.2863,0 4.13547,-8.45784 4.88457,-14.5 0.35467,-2.86074 -0.10749,-10.30797 -1.08017,-17.40607 -0.93503,-6.82333 -1.46004,-14.02333 -1.16669,-16 4.06832,-27.41283 5.3893,-32.52862 11.59722,-44.91264 3.35481,-6.69242 11.02568,-20.46527 17.04638,-30.60633 12.13382,-20.43779 15.63055,-27.11932 18.97509,-36.25747 1.24453,-3.40039 3.00678,-6.85021 3.9161,-7.66627 1.51783,-1.36217 12.77896,-3.28414 39.15331,-6.68243 14.56491,-1.87665 12.83293,1.84098 13.19014,-28.31217 l 0.30986,-26.15662 3.19225,-6.76094 c 3.62234,-7.67185 10.54344,-16.89061 15.80781,-21.05565 5.11489,-4.04679 15.12234,-8.49382 22.03692,-9.7926 13.90202,-2.61124 33.09723,1.29082 41.92193,8.52204 6.1188,5.01388 12.0406,14.33838 15.1974,23.92976 2.5484,7.74328 2.7067,9.39324 3.1181,32.50182 l 0.4333,24.34442 3.6462,1.5239 c 7.357,3.0749 73.7637,19.28656 79.0062,19.28756 1.4341,2.8e-4 1.6399,-1.59942 1.6399,-12.75 0,-11.60033 0.2255,-13.20127 2.5,-17.75031 2.891,-5.78209 7.2527,-8.00508 12.2728,-6.25505 4.7317,1.64946 5.6986,4.3617 6.7375,18.89924 2.1709,30.37802 6.0378,44.04022 20.7622,73.35581 3.0387,6.05 6.4045,12.76196 7.4795,14.91548 l 1.9546,3.91548 -3.5888,9.08452 c -1.9738,4.99648 -4.9301,13.06134 -6.5694,17.92189 -1.6394,4.86055 -5.3417,12.73555 -8.2274,17.5 -6.299,10.40005 -21.953,41.13873 -21.4045,42.03052 0.3806,0.61875 25.7697,0.27226 26.407,-0.36038 z M 242.13778,390.69778 c -2.41345,-0.47402 -4.66312,-1.13688 -4.99925,-1.47301 -0.663,-0.663 13.19573,-14.3041 21.57461,-21.23582 l 5.18543,-4.28982 1.70156,5.39796 c 2.87387,9.11698 -0.20578,17.2501 -7.84492,20.71787 -4.50388,2.04452 -8.54088,2.27273 -15.61743,0.88282 z m 60.3084,-35.80447 c -4.15753,-2.53526 -5.83946,-6.92764 -5.08665,-13.28388 0.33233,-2.80603 0.76066,-5.2583 0.95184,-5.44948 0.19117,-0.19117 5.94265,-0.82902 12.78105,-1.41743 22.36459,-1.92436 30.39831,-4.12145 49.47609,-13.53091 7.17345,-3.53806 14.00142,-6.43283 15.17327,-6.43283 2.83106,0 8.24114,4.65295 9.82914,8.45356 2.00228,4.79214 0.7782,8.31565 -3.92489,11.2978 -5.92608,3.75762 -33.22274,16.71682 -39.12016,18.57246 -8.18175,2.57441 -16.26374,3.6764 -26.93366,3.67244 -8.08384,-0.003 -10.67286,-0.37359 -13.14603,-1.88173 z m 231.87093,190.24425 15.79127,-0.61835 2.2087,-4.39718 c 5.109,-10.17096 17.1496,-28.59026 25.3788,-38.8237 5.171,-6.43032 11.1091,-15.31097 14.33,-21.43091 3.025,-5.74774 6.6867,-11.31896 8.1371,-12.38048 l 2.637,-1.93003 30.363,6.28877 c 16.6996,3.45882 32.0479,6.48078 34.1074,6.71545 l 3.7445,0.42668 -2.4011,-6.35452 c -4.6482,-12.30116 -6.4515,-16.4567 -11.8708,-27.35451 -3.0085,-6.05 -6.0266,-12.575 -6.7068,-14.5 -1.203,-3.40421 -1.3911,-3.50493 -6.8736,-3.68016 -5.557,-0.17761 -33.2554,-6.17179 -58.6367,-12.68949 -7.15,-1.83606 -17.9872,-4.61076 -24.0826,-6.166 l -11.0825,-2.82771 -3.9647,3.1861 c -12.00118,9.6444 -33.69054,9.62775 -40.72595,-0.0313 -2.177,-2.98883 -3.32968,-12.40892 -1.79591,-14.67673 0.75134,-1.11093 1.58182,-1.16044 4.19349,-0.25 1.79114,0.62439 6.45196,1.12538 10.35739,1.1133 8.37278,-0.0259 13.894,-2.16094 17.90012,-6.92194 l 2.71656,-3.2285 -0.53356,-18.6638 c -0.74126,-25.92684 -1.15654,-29.77887 -3.83555,-35.5779 -4.61976,-10.00003 -11.39187,-13.59444 -25.5783,-13.57613 -9.25647,0.012 -15.79643,2.71061 -21.26192,8.77357 -7.32638,8.12728 -7.17175,7.14943 -6.37091,40.28867 0.79241,32.79037 0.44009,35.42708 -5.10689,38.21888 -1.55583,0.78305 -14.24286,2.95044 -28.1934,4.81642 l -25.36463,3.39269 -4.30826,8.5 c -2.36954,4.675 -9.08309,16.15 -14.919,25.5 -10.32633,16.54432 -22.33533,39.04148 -21.36066,40.01616 0.26616,0.26616 7.18374,-3.5661 15.3724,-8.51612 8.18866,-4.95002 15.81352,-9.00004 16.94412,-9.00004 3.12106,0 6.00213,2.46523 9.03775,7.73329 1.51071,2.62169 9.12948,13.31671 16.9306,23.76671 17.99844,24.10981 19.2896,26.04209 24.97697,37.37918 l 4.70516,9.37917 24.67509,-0.64061 c 13.57129,-0.35234 31.78114,-0.91887 40.46632,-1.25896 z"
       id="path1" />
  </g>
</svg>
